<?xml version="1.0" encoding="utf-8"?>
<!-- Generator: Adobe Illustrator 25.0.0, SVG Export Plug-In . SVG Version: 6.00 Build 0)  -->
<svg version="1.1" id="Layer_1" xmlns="http://www.w3.org/2000/svg" xmlns:xlink="http://www.w3.org/1999/xlink" x="0px" y="0px"
	 viewBox="0 0 269 63.1" style="enable-background:new 0 0 269 63.1;" xml:space="preserve">
<style type="text/css">
	.st0{enable-background:new    ;}
	.st1{fill:#231F20;}
	.st2{fill:#496E6E;}
	.st3{fill:#2DA048;}
	.st4{fill:#FFFFFF;}
	.st5{fill:#FAED23;}
	.st6{fill:#FFCD06;}
	.st7{fill:#0092C8;}
	.st8{fill:#E81D3A;}
	.st9{fill:#00AE68;}
	.st10{fill:#FFCB05;}
</style>
<g id="Group_624" transform="translate(-65 -28.89)">
	<g class="st0">
		<path d="M139.5,51.6H137V56h-1.3V45.4h4c2.1,0,3.6,1.2,3.6,3.1c0,1.5-0.9,2.6-2.3,2.9l3,4.5h-1.5L139.5,51.6z M137,50.4h2.7
			c1.5,0,2.2-0.6,2.2-1.9c0-1.3-0.7-1.9-2.2-1.9H137V50.4z"/>
		<path d="M152.7,52.5h-6c0.2,1.6,1.1,2.6,2.6,2.6c1.2,0,2-0.4,2.3-1.2l1.1,0.6c-0.6,1.1-1.6,1.7-3.3,1.7c-2.4,0-3.9-1.6-3.9-4.2
			c0-2.6,1.4-4.2,3.8-4.2c2.3,0,3.6,1.7,3.6,3.7C152.7,52,152.7,52.3,152.7,52.5z M146.6,51.3h4.9c-0.2-1.5-1-2.4-2.4-2.4
			C147.7,49,146.8,49.8,146.6,51.3z"/>
		<path d="M162.7,52c0,2.6-1.4,4.2-3.6,4.2c-1.2,0-2.2-0.6-2.7-1.4v4.6h-1.3V48h1.1l0.1,1.4c0.5-0.9,1.5-1.6,2.7-1.6
			C161.3,47.8,162.7,49.4,162.7,52z M161.5,52c0-1.9-0.9-3-2.5-3c-1.5,0-2.5,1.1-2.5,2.9v0.2c0,1.8,1,2.9,2.5,2.9
			C160.5,55,161.5,53.9,161.5,52z"/>
		<path d="M172.2,48v8H171l-0.1-1.2c-0.6,1-1.6,1.4-2.9,1.4c-1.6,0-2.9-0.8-2.9-2.9V48h1.3v4.9c0,1.6,0.7,2.1,1.9,2.1
			c1.4,0,2.6-0.8,2.6-2.7V48H172.2z"/>
		<path d="M182.7,52c0,2.6-1.4,4.2-3.6,4.2c-1.3,0-2.3-0.6-2.7-1.6l-0.1,1.4h-1.1V44.3h1.3v4.9c0.5-0.8,1.5-1.4,2.7-1.4
			C181.3,47.8,182.7,49.4,182.7,52z M181.4,52c0-1.9-0.9-3-2.5-3c-1.5,0-2.5,1.1-2.5,2.9v0.2c0,1.8,1,2.9,2.5,2.9
			C180.5,55,181.4,53.9,181.4,52z"/>
		<path d="M186.4,53.9c0,0.8,0.2,1.1,0.9,1.1c0.4,0,0.7,0,1.2-0.2l-0.2,1.2c-0.3,0.1-0.8,0.2-1.2,0.2c-1.3,0-1.9-0.7-1.9-2.1v-9.7
			h1.3V53.9z"/>
		<path d="M189.8,45.5c0-0.6,0.4-1,1-1s1,0.4,1,1s-0.4,1-1,1S189.8,46.1,189.8,45.5z M191.4,56h-1.3v-8h1.3V56z"/>
		<path d="M201.1,50l-1.2,0.6c-0.3-1-1-1.6-2.1-1.6c-1.6,0-2.6,1.1-2.6,3c0,1.9,1,3,2.6,3c1.2,0,2-0.6,2.2-1.6l1.2,0.4
			c-0.5,1.5-1.7,2.4-3.4,2.4c-2.4,0-3.9-1.6-3.9-4.2c0-2.6,1.5-4.2,3.9-4.2C199.4,47.8,200.5,48.7,201.1,50z"/>
		<path d="M216.1,52c0,2.6-1.5,4.2-3.9,4.2c-2.4,0-3.9-1.6-3.9-4.2c0-2.6,1.5-4.2,3.9-4.2C214.6,47.8,216.1,49.4,216.1,52z
			 M209.6,52c0,1.9,1,3.1,2.6,3.1c1.6,0,2.6-1.2,2.6-3.1c0-1.9-1-3.1-2.6-3.1C210.6,48.9,209.6,50.1,209.6,52z"/>
		<path d="M220.3,48h2.7v1.1h-2.7V56h-1.3v-6.9h-1.6V48h1.6v-1.3c0-1.4,0.9-2.4,2.6-2.4c0.6,0,1.1,0.1,1.4,0.4l-0.3,1
			c-0.3-0.2-0.5-0.2-0.9-0.2c-0.9,0-1.5,0.4-1.5,1.4V48z"/>
		<path d="M235.1,53.1h-4.8l-1.1,2.9h-1.3l4.1-10.6h1.5l4.1,10.6h-1.4L235.1,53.1z M234.6,51.9l-1.4-3.7l-0.5-1.5h0l-0.5,1.4
			l-1.4,3.8H234.6z"/>
		<path d="M238.9,55l4.2-4.9l1-1l-1.4,0h-3.7V48h6.6v1l-4.2,4.9l-1,1l1.6,0h3.8V56h-6.8V55z"/>
		<path d="M254.7,52.5h-6c0.2,1.6,1.1,2.6,2.6,2.6c1.2,0,2-0.4,2.3-1.2l1.1,0.6c-0.6,1.1-1.6,1.7-3.3,1.7c-2.4,0-3.9-1.6-3.9-4.2
			c0-2.6,1.4-4.2,3.8-4.2c2.3,0,3.6,1.7,3.6,3.7C254.7,52,254.7,52.3,254.7,52.5z M248.7,51.3h4.8c-0.2-1.5-1-2.4-2.4-2.4
			C249.7,49,248.8,49.8,248.7,51.3z"/>
		<path d="M261.8,48l-0.3,1.2c-0.2-0.1-0.6-0.2-1-0.2c-1,0-2.1,0.8-2.1,2.6V56h-1.3v-8h1l0.2,1.3c0.4-1,1.3-1.5,2.6-1.5
			C261.2,47.8,261.6,47.9,261.8,48z"/>
		<path d="M271.3,52c0,2.6-1.4,4.2-3.6,4.2c-1.3,0-2.3-0.6-2.7-1.6l-0.1,1.4h-1.1V44.3h1.3v4.9c0.5-0.8,1.5-1.4,2.7-1.4
			C269.9,47.8,271.3,49.4,271.3,52z M270,52c0-1.9-0.9-3-2.5-3c-1.5,0-2.5,1.1-2.5,2.9v0.2c0,1.8,1,2.9,2.5,2.9
			C269.1,55,270,53.9,270,52z"/>
		<path d="M281,55l-0.1,1c-0.2,0.1-0.6,0.2-1,0.2c-0.8,0-1.3-0.3-1.4-1.2c-0.5,0.8-1.6,1.2-2.6,1.2c-1.5,0-2.7-0.7-2.7-2.1
			c0-1.2,1.1-2.1,3.1-2.5l2.1-0.4v-0.4c0-1.1-0.7-1.8-1.9-1.8c-1.1,0-1.9,0.5-2.3,1.5l-0.9-0.7c0.4-1.2,1.7-2,3.2-2
			c1.8,0,3.2,0.9,3.2,2.7v3.9c0,0.4,0.2,0.6,0.6,0.6C280.5,55.1,280.8,55,281,55z M278.4,53.3v-1.1l-1.8,0.3
			c-1.4,0.3-2.1,0.7-2.1,1.5c0,0.7,0.5,1,1.5,1C277.3,55,278.4,54.4,278.4,53.3z"/>
		<path d="M282.5,45.5c0-0.6,0.4-1,1-1s1,0.4,1,1s-0.4,1-1,1S282.5,46.1,282.5,45.5z M284.1,56h-1.3v-8h1.3V56z"/>
		<path d="M288.4,56.8c0,2-1.3,2.6-2.4,2.6c-0.7,0-1.2-0.2-1.6-0.5l0.3-1.2c0.3,0.3,0.8,0.5,1.3,0.5c0.7,0,1.2-0.4,1.2-1.5V48h1.3
			V56.8z M288.7,45.5c0,0.5-0.4,1-1,1s-1-0.4-1-1s0.4-1,1-1S288.7,45,288.7,45.5z"/>
		<path d="M298.5,55l-0.1,1c-0.2,0.1-0.6,0.2-1,0.2c-0.8,0-1.3-0.3-1.4-1.2c-0.5,0.8-1.6,1.2-2.6,1.2c-1.5,0-2.7-0.7-2.7-2.1
			c0-1.2,1.1-2.1,3.1-2.5l2.1-0.4v-0.4c0-1.1-0.7-1.8-1.9-1.8c-1.1,0-1.9,0.5-2.3,1.5l-0.9-0.7c0.4-1.2,1.7-2,3.2-2
			c1.8,0,3.2,0.9,3.2,2.7v3.9c0,0.4,0.2,0.6,0.6,0.6C298.1,55.1,298.4,55,298.5,55z M296,53.3v-1.1l-1.8,0.3
			c-1.4,0.3-2.1,0.7-2.1,1.5c0,0.7,0.5,1,1.5,1C294.8,55,296,54.4,296,53.3z"/>
		<path d="M307.4,50.9V56h-1.3v-4.7c0-1.8-0.9-2.4-2-2.4c-1.2,0-2.5,0.7-2.5,2.8V56h-1.3v-8h1.1l0.1,1.2c0.6-1,1.6-1.4,2.7-1.4
			C306,47.8,307.4,48.8,307.4,50.9z"/>
	</g>
	<g class="st0">
		<path d="M145.9,78h-1.2v-6.6l0.1-2.8h0l-3.5,9.4h-1.1l-3.5-9.4h0l0.1,2.8V78h-1.2V67.4h2l2.3,6.4l0.8,2.6h0l0.8-2.6l2.3-6.4h2V78z
			"/>
		<path d="M148.8,67.5c0-0.6,0.4-1,1-1s1,0.4,1,1s-0.4,1-1,1S148.8,68.1,148.8,67.5z M150.4,78h-1.3v-8h1.3V78z"/>
		<path d="M160.4,72.9V78h-1.3v-4.7c0-1.8-0.9-2.4-2-2.4c-1.2,0-2.5,0.7-2.5,2.8V78h-1.3v-8h1.1l0.1,1.2c0.6-1,1.6-1.4,2.7-1.4
			C159,69.8,160.4,70.8,160.4,72.9z"/>
		<path d="M163,67.5c0-0.6,0.4-1,1-1s1,0.4,1,1s-0.4,1-1,1S163,68.1,163,67.5z M164.6,78h-1.3v-8h1.3V78z"/>
		<path d="M166.8,76.4l1-0.7c0.4,1,1.4,1.4,2.5,1.4c1.3,0,1.9-0.5,1.9-1.2c0-0.6-0.5-0.9-2.1-1.2c-2.3-0.4-3.1-1-3.1-2.4
			c0-1.3,1.2-2.4,3.2-2.4c1.7,0,2.7,0.6,3.2,1.9l-1.1,0.6c-0.4-1.1-1.1-1.4-2.1-1.4c-1.1,0-1.9,0.6-1.9,1.2c0,0.7,0.5,1,2.2,1.3
			c2.2,0.4,3,1,3,2.4c0,1.4-1.3,2.4-3.3,2.4C168.8,78.2,167.5,77.6,166.8,76.4z"/>
		<path d="M180.9,77.4c-0.5,0.4-1.2,0.7-2.1,0.7c-1.2,0-2.2-0.6-2.2-2.1v-4.9H175V70h1.6v-1.9l1.3-0.4V70h3v1.1h-3v4.7
			c0,0.8,0.5,1.2,1.2,1.2c0.6,0,1-0.2,1.4-0.6L180.9,77.4z"/>
		<path d="M187.4,70l-0.3,1.2c-0.2-0.1-0.6-0.2-1-0.2c-1,0-2.1,0.8-2.1,2.6V78h-1.3v-8h1l0.2,1.3c0.4-1,1.3-1.5,2.6-1.5
			C186.8,69.8,187.1,69.9,187.4,70z"/>
		<path d="M192.3,79.3c-0.6,1.6-1.3,2.1-2.5,2.1c-0.8,0-1.3-0.2-1.8-0.7l0.4-1.1c0.4,0.5,0.8,0.6,1.3,0.6c0.6,0,1.1-0.2,1.5-1.3
			l0.4-1l-3.3-8h1.5l2,5.2l0.5,1.4l0.6-1.6l1.9-5.1h1.4L192.3,79.3z"/>
		<path d="M210.1,74c0,2.6-1.5,4.2-3.9,4.2c-2.4,0-3.9-1.6-3.9-4.2c0-2.6,1.5-4.2,3.9-4.2C208.6,69.8,210.1,71.4,210.1,74z
			 M203.6,74c0,1.9,1,3.1,2.6,3.1c1.6,0,2.6-1.2,2.6-3.1c0-1.9-1-3.1-2.6-3.1C204.6,70.9,203.6,72.1,203.6,74z"/>
		<path d="M214.3,70h2.7v1.1h-2.7V78h-1.3v-6.9h-1.6V70h1.6v-1.3c0-1.4,0.9-2.4,2.6-2.4c0.6,0,1.1,0.1,1.4,0.4l-0.3,1
			c-0.3-0.2-0.5-0.2-0.9-0.2c-0.9,0-1.5,0.4-1.5,1.4V70z"/>
		<path d="M225.1,68.6V72h4.8v1.2h-4.8V78h-1.3V67.4h7.4v1.2H225.1z"/>
		<path d="M239.7,74c0,2.6-1.5,4.2-3.9,4.2s-3.9-1.6-3.9-4.2c0-2.6,1.5-4.2,3.9-4.2S239.7,71.4,239.7,74z M233.2,74
			c0,1.9,1,3.1,2.6,3.1s2.6-1.2,2.6-3.1c0-1.9-1-3.1-2.6-3.1S233.2,72.1,233.2,74z"/>
		<path d="M246.8,70l-0.3,1.2c-0.2-0.1-0.6-0.2-1-0.2c-1,0-2.1,0.8-2.1,2.6V78h-1.3v-8h1l0.2,1.3c0.4-1,1.3-1.5,2.6-1.5
			C246.2,69.8,246.6,69.9,246.8,70z"/>
		<path d="M255.2,74.5h-6c0.2,1.6,1.1,2.6,2.6,2.6c1.2,0,2-0.4,2.3-1.2l1.1,0.6c-0.6,1.1-1.6,1.7-3.3,1.7c-2.4,0-3.9-1.6-3.9-4.2
			c0-2.6,1.4-4.2,3.8-4.2c2.3,0,3.6,1.7,3.6,3.7C255.3,74,255.2,74.3,255.2,74.5z M249.2,73.3h4.8c-0.2-1.5-1-2.4-2.4-2.4
			C250.3,71,249.4,71.8,249.2,73.3z"/>
		<path d="M257.4,67.5c0-0.6,0.4-1,1-1s1,0.4,1,1s-0.4,1-1,1S257.4,68.1,257.4,67.5z M259,78h-1.3v-8h1.3V78z"/>
		<path d="M268.8,78.9c0,1.6-1.8,2.6-4,2.6c-2.5,0-3.7-0.9-3.7-2.1c0-0.7,0.5-1.3,1.4-1.6c-0.6-0.3-1.1-0.8-1.1-1.5
			c0-0.8,0.5-1.3,1.2-1.6c-0.8-0.5-1.2-1.3-1.2-2.2c0-1.6,1.4-2.7,3.3-2.7c0.6,0,1.2,0.1,1.6,0.3c0.3-1.1,1.1-1.6,2.3-1.6l0.3,1.1
			c-1.1,0-1.7,0.3-1.9,0.9c0.6,0.5,1,1.2,1,2c0,1.6-1.4,2.7-3.3,2.7c-0.5,0-0.9,0-1.2-0.1c-0.6,0.1-0.9,0.5-0.9,1
			c0,0.6,0.4,0.9,1.1,0.9h2.7C268,77,268.8,77.7,268.8,78.9z M267.7,79c0-0.6-0.4-0.9-1.6-0.9h-2.1c-1,0-1.5,0.4-1.5,1
			c0,0.8,0.9,1.3,2.6,1.3C266.7,80.4,267.7,79.7,267.7,79z M262.9,72.5c0,1,0.8,1.7,2,1.7c1.1,0,2-0.7,2-1.7s-0.8-1.7-2-1.7
			C263.7,70.9,262.9,71.6,262.9,72.5z"/>
		<path d="M277.8,72.9V78h-1.3v-4.7c0-1.8-0.9-2.4-2-2.4c-1.2,0-2.5,0.7-2.5,2.8V78h-1.3v-8h1.1l0.1,1.2c0.6-1,1.6-1.4,2.7-1.4
			C276.4,69.8,277.8,70.8,277.8,72.9z"/>
		<path d="M291.6,75.1h-4.8l-1.1,2.9h-1.3l4.1-10.6h1.5l4.1,10.6h-1.4L291.6,75.1z M291.2,73.9l-1.4-3.7l-0.5-1.5h0l-0.5,1.4
			l-1.4,3.8H291.2z"/>
		<path d="M297.6,70h2.7v1.1h-2.7V78h-1.3v-6.9h-1.6V70h1.6v-1.3c0-1.4,0.9-2.4,2.6-2.4c0.6,0,1.1,0.1,1.4,0.4l-0.3,1
			c-0.3-0.2-0.5-0.2-0.9-0.2c-0.9,0-1.5,0.4-1.5,1.4V70z"/>
		<path d="M302.7,70h2.7v1.1h-2.7V78h-1.3v-6.9h-1.6V70h1.6v-1.3c0-1.4,0.9-2.4,2.6-2.4c0.6,0,1.1,0.1,1.4,0.4l-0.3,1
			c-0.3-0.2-0.5-0.2-0.9-0.2c-0.9,0-1.5,0.4-1.5,1.4V70z"/>
		<path d="M313.8,77l-0.1,1c-0.2,0.1-0.6,0.2-1,0.2c-0.8,0-1.3-0.3-1.4-1.2c-0.5,0.8-1.6,1.2-2.6,1.2c-1.5,0-2.7-0.7-2.7-2.1
			c0-1.2,1.1-2.1,3.1-2.5l2.1-0.4v-0.4c0-1.1-0.7-1.8-1.9-1.8c-1.1,0-1.9,0.5-2.3,1.5l-0.9-0.7c0.4-1.2,1.7-2,3.2-2
			c1.8,0,3.2,0.9,3.2,2.7v3.9c0,0.4,0.2,0.6,0.6,0.6C313.4,77.1,313.6,77,313.8,77z M311.3,75.3v-1.1l-1.8,0.3
			c-1.4,0.3-2.1,0.7-2.1,1.5c0,0.7,0.5,1,1.5,1C310.1,77,311.3,76.4,311.3,75.3z"/>
		<path d="M315.4,67.5c0-0.6,0.4-1,1-1s1,0.4,1,1s-0.4,1-1,1S315.4,68.1,315.4,67.5z M317,78h-1.3v-8h1.3V78z"/>
		<path d="M324.6,70l-0.3,1.2c-0.2-0.1-0.6-0.2-1-0.2c-1,0-2.1,0.8-2.1,2.6V78h-1.3v-8h1l0.2,1.3c0.4-1,1.3-1.5,2.6-1.5
			C324,69.8,324.4,69.9,324.6,70z"/>
		<path d="M325.4,76.4l1-0.7c0.4,1,1.4,1.4,2.5,1.4c1.3,0,1.9-0.5,1.9-1.2c0-0.6-0.5-0.9-2.1-1.2c-2.3-0.4-3.1-1-3.1-2.4
			c0-1.3,1.2-2.4,3.2-2.4c1.7,0,2.7,0.6,3.2,1.9l-1.1,0.6c-0.4-1.1-1.1-1.4-2.1-1.4c-1.1,0-1.9,0.6-1.9,1.2c0,0.7,0.5,1,2.2,1.3
			c2.2,0.4,3,1,3,2.4c0,1.4-1.3,2.4-3.3,2.4C327.4,78.2,326,77.6,325.4,76.4z"/>
	</g>
	<g id="Layer_2_1_" transform="translate(65 28.89)">
		<g id="Layer_1_1_" transform="translate(0 0.11)">
			<g id="Path_100">
				<path class="st1" d="M29.6,31.2l24.8-0.9c-0.2,2.8-1.3,5.3-2.1,8.2c0.6,1.2,2.4-2.9,2.5-3.3c0-0.1,0.5-1.9,0.7-1.2
					c-0.4,1-0.7,2-0.9,3c0,0.1-0.1,0.9,0,0.8c0.1-0.3,0.3-0.6,0.3-1c0.3-0.7,0.5-1.4,0.7-2.2c0.1-0.2,0.1-0.5,0.2-0.7
					c0-0.4,0.5-0.5,0.3-0.1c-0.1,0.5-0.2,1.1-0.4,1.6c0.1,0.5,0.2,0.1,0.3-0.1c0,0,0.2-0.6,0.3-1c0.1-0.5,0.3-1,0.5-1.8
					c0.1-0.4,0.3-0.9,0.3-0.4c-0.1,0.8-0.5,2.1-0.7,2.9c0,0.2-0.1,0.4,0.1,0.4c0.1-0.5,0.3-1.1,0.6-1.6c0.5-0.1-0.5,1.8-0.4,2.5
					c0.2-0.5,0.4-0.9,0.7-1.3c0.4,0-0.1,0.3-0.1,0.6c0,0.1-0.8,2.4-0.6,2.4c0.2-0.3,0.8-2,1-2.1c0.2,0.2-0.7,2.2-0.7,2.6
					c-0.2,0.3-0.3,0.7-0.4,1c-0.1,0.1-0.1,0.3-0.1,0.4c0-0.2,0.4-0.6,0.5-0.8c0.2-0.2,0.2-0.5,0.5-0.3c-0.3,0.9-0.9,1.8-1.3,2.7
					c-0.3,0.4-0.8,1.3-0.3,0.8c0.2-0.2,0.4-0.5,0.6-0.8l0.4-0.7c0.1-0.1,0.2-0.2,0.4-0.2c-0.3,0.6-0.7,1.2-1,1.8
					c-0.7,0.8-1.2,1.9-1.9,2.7c-0.2,0.3-0.8,0.8,0.1,0.4c0.9-0.9,1.7-1.9,2.4-3.1l0.2,0.1c-0.8,1.4-1.7,2.6-2.7,3.9
					c-0.4,0.3-0.7,0.7-1,1.1c0.2,0.1,0.1,0.1,0.3-0.1c0.4-0.5,0.9-0.9,1.4-1.3l0.1,0.1c-0.8,1.1-1.8,2.1-2.9,3
					c-0.4,0.3-0.7,0.5-1.1,0.8c0.5,0.2,2.2-1.2,2.6-1.5c0.1-0.2,0.1-0.2,0.2-0.3l0,0c0.1-0.1,0.5-0.5,0.5-0.1
					c-0.6,0.5-1.1,1.1-1.7,1.6c-0.9,0.9-2,1.6-3.1,2.3c0.4,0.2,2.1-0.9,2.4-1.1c0.3-0.2,0.5-0.4,0.7-0.5c0,0.1,0.3,0.2,0.3,0.2
					c-0.6,0.5-1.2,0.9-1.8,1.3c-0.7,0.5-1.4,1-2.2,1.4c-0.7,0.4-1.4,0.7-2.2,1c0,0.2,1.2-0.2,1.3-0.2c1-0.2,1.9-0.7,2.7-1.3
					c0.2,0.3,0.2,0.3-0.1,0.5c-0.4,0.2-0.8,0.5-1.2,0.8c-0.5,0.2-1,0.5-1.5,0.7c-1.1,0.6-2.2,1-3.3,1.4c-0.3,0-0.7,0.2-1,0.2
					c-0.2,0-0.2,0.1,0.1,0.1c0.6,0,1.3-0.1,1.9-0.2c0.4-0.1,0.9-0.2,1.3-0.4c0.6-0.2,1.4-0.6,2-0.9c0,0.1,0.1,0.2,0.1,0.2
					c-0.7,0.5-1.4,0.8-2.2,1c0,0-0.1,0.1-0.2,0.1c-0.3,0-1.1,0.4-1.4,0.5c-0.8,0.3-1.6,0.5-2.4,0.7c0.6,0.1,1.3,0,1.9-0.2
					c0,0.2,0.4,0.3,0.4,0.3c-0.3,0.6-0.6,1.3-1,1.8c-0.8,0.4-1.6,0.9-2.4,1.3c-0.3,0-0.4,0-0.3-0.4c0,0,0.6-0.7,0.3-0.7
					s-0.5-0.1-0.5,0.3c0,0.1,0,0.2-0.1,0.2c0,0.5-0.2,1.3-0.6,1.5c-0.3,0.3-1.1,0.4-1.5,0.6c-1,0-2.2,0.6-3.1,0
					c-0.3,0-0.6,0.1-0.4-0.3c0.1,0,0.2,0,0.4-0.1c0.4,0,2.4-0.5,2.2-1c-0.2,0-0.5,0-0.6-0.1c-0.2,0-0.2-0.1-0.4-0.1
					c-0.2-0.3-0.7-0.1-1-0.3c-0.2-0.1-0.5-0.2-0.1,0.1c0,0.3,0,0.7-0.3,0.8c-0.2,0.1-0.3,0.2-0.5,0.2c-0.3,0-1.1,0.1-1.1-0.2
					c-0.2,0.1-0.1,0.1-0.1,0.3c0.2,0-0.1,0.4-0.2,0.5c-0.3,0.6-1.8,0.5-2.3,0.5c-0.2,0-0.4-0.2-0.6-0.2c-0.8-0.4-1.8-0.8-2.5-1.3
					c-0.3,0-0.7,0.3-0.9,0.5c-0.7,0.7-1.6,1.1-2.5,1.3c-0.3,0-0.7,0-0.8-0.2c-0.2,0-0.2-0.4-0.2-0.5c0,0,0.5-0.5,0.1-0.3
					c-0.5,0.3-1.2,0.4-1.7,0.2c-0.5-0.5-0.4-0.6,0-1c-0.2-0.1-0.3-0.2-0.4-0.3c0-0.1,0-0.2-0.1-0.4c-0.5,0.3-1,0.2-1.5-0.1
					c-0.3,0.3-0.8,0.5-1.3,0.5c-0.1-0.1-0.3-0.1-0.4-0.2c-0.9,0-0.8,0-0.8,0.7c0,0.2,0.1,0.3,0,0.4l0,0c0,0.2-0.1,0.5-0.3,0.5
					c-0.4,0.3-0.9,0.5-1.4,0.4c-0.4,0-0.7-0.2-0.9-0.4c-0.2,0-0.2-0.2-0.2-0.3c-0.4-0.6-0.3-1.3,0.2-1.8l0,0
					c0.1-0.1,0.3-0.4,0.1-0.4c0-0.2,0.1-0.3-0.2-0.3l0,0c-0.2,0-0.1-0.2-0.3-0.2c-0.4-0.2-0.5,0.1-1,0.1c-0.4,0.6-1.1,1.4-1.9,1.4
					c-0.2,0-0.4-0.4-0.4-0.6c-0.1-0.5-0.1-1.1,0.1-1.6c-0.2,0-0.4-0.1-0.6-0.3c-0.1,0-0.2-0.3-0.2-0.4c0-0.4-0.2-0.3-0.2-0.5
					c0-0.3-0.6,0.1-0.8,0.1H9.2c0,0,0-0.1,0.1-0.1c-0.6,0-1.1-1-0.8-1.5c-0.1,0,0-0.1,0-0.2c0.2-0.4,1-0.7,1.5-1
					c-0.3,0-0.2-0.3-0.4-0.3c-0.1,0-0.1-0.1-0.1-0.2c-0.4,0,0.2-0.8-0.6-0.8c-0.2-0.2-0.2-0.2-0.4-0.2H8.3c-0.5,0-1.9-0.8-1.9-1.3
					c0.1-0.2,0.3-0.4,0.4-0.5c0.4-0.3-0.4-0.2-0.5-0.6c-0.4-0.1-0.4-0.5-0.4-0.8c0-0.5,0.6-0.7,0.8-1.1c-0.4-0.3-0.7-0.1-1.1-0.2
					H5.1c-0.4-0.1-0.7-0.3-0.9-0.6C4,47.8,4,47.4,4,47c0-0.5,1.1-0.6,1.1-1c-0.3-0.1-0.5-0.7-0.7-1c-0.1-0.5-0.2-1-0.2-1.5
					c-0.6,0.1-1.2-0.2-1.5-0.7c-0.4-0.5-0.6-1.1-0.6-1.7c0-0.7-0.6-0.2-0.9-0.5c-0.3,0,0.1-0.6-0.3-0.7c-0.5-0.3-0.9-0.8-0.9-1.4
					c0-0.9,1-0.1,1-0.9c0-1.2,0.1-0.9,0.9-1.4C2,35.9,1.7,36,1.6,35.6c-0.3-0.2-0.3-0.7-0.5-0.9c-0.1-0.8,0.3-1.5,1-1.8h0.3
					c0.4,0,0.5,0.5,0.7,0.5c0.2,0.5,0.2,0,0.1,0c0-0.2,0-0.7-0.2-0.7C3,32.5,3,32.2,3,32c-0.1,0-0.1-0.3-0.1-0.4L29.6,31.2z"/>
			</g>
			<g id="Path_101">
				<path class="st2" d="M25,62.6l-0.2-0.2l0,0v-0.1l0,0l0.1-0.1H25l0.1-0.1l0,0l0.1-0.1l0,0l0.1-0.1h0.7l0.2,0.1l0,0l0.2,0.1l0,0
					l0.2,0.1l0,0l0.2,0.1l0,0l-0.2,0.1l0,0l-0.2,0.1h-0.2L26,62.6H25L25,62.6z"/>
			</g>
			<g id="Path_102">
				<path class="st2" d="M31.7,62.5l-0.2-0.1l0,0l0.2-0.2h0.1l0.1-0.1h0L32,62l0,0l0.1,0l0,0l0.1-0.1h0.1l0.1-0.1h0.1l0.1-0.1h1.2
					l0.1,0.1l0,0L33.9,62l0,0l-0.1,0l0,0l-0.1,0.1l0,0l-0.1,0.1l0,0l0,0.1h-0.1l-0.1,0.1h-0.1l-0.1,0.1l0,0l-0.2,0.1h-0.2l-0.2,0.1
					L31.7,62.5L31.7,62.5z"/>
			</g>
			<g id="Path_103">
				<path class="st3" d="M14.8,58.5c0-1.1,1-0.9,1.8-1.1c0.5-0.1,1-0.4,1.4-0.8c0.2-0.9-0.5-0.5-0.5-1.2c0-0.6,0.6-0.5,1-0.4
					c0.2,0,0.2,0.1,0.4,0.1c-0.5,0.3-0.4,0.5-0.4,0.9c0,0.2-0.5,1.1,0.1,1.1c0,0.2,0.3,0.1,0.1,0.2c0,0.6-1.6,1.4-1.8,1.6
					c0.1,0.3,0.9-0.3,1-0.4c0.1,0.1-0.4,0.9-0.4,1.1c-0.2,0.6-0.4,1.2-0.4,1.8c0,0.4,0.2,0,0.2-0.1c0.2-1,0.6-1.9,1.1-2.8
					c0.1,0.1,0.2,0.8,0.2,0.8c0,0.2,0.3,0.6,0.4,0.8c0.5,0.2-0.2-1.1-0.2-1.3c-0.3-0.3,0-0.8,0.2-1.1c0,0,0.4,0.7,0.4,0.2
					c0,0.1,0.6,0,0.8,0l2.2,0.1c0.4,0.5-0.2,1-0.4,1c-0.7,0-1.6-0.8-1.8-0.6c-0.9,0.7,1,1.8,0.1,2.2c-0.3,0-1.2,0.1-1.4-0.3
					c-1.5,0.4-0.2,2-1.9,2c-1,0-1.1-1.2-0.5-1.7c0.4-0.4,0.4-1.5-0.3-1.5C15.5,59,14.8,58.8,14.8,58.5z"/>
			</g>
			<g id="Path_104">
				<path class="st3" d="M37.8,62.1L37.8,62.1L38,62h0.1l0.1,0h0.1l0.1-0.1l0,0l0.1-0.1l0,0l0.2-0.1h0.1l0.1,0.1l0,0v0.1h0.4
					l0.1-0.1l0,0l-0.2,0.1h-0.1l-0.1,0.1H39L38.9,62l0,0l-0.2,0h-0.3l-0.2,0.1L37.8,62.1L37.8,62.1z"/>
			</g>
			<g id="Path_105">
				<path class="st2" d="M23,62h-0.2v-0.1h-0.1v-0.1h-0.1v-0.1l0,0v-0.1l0,0l0.2-0.1h0.7v0.1h0.1v0.1H24v0.1l0,0l-0.1,0.1h-0.1
					l-0.1,0.1h-0.1L23.6,62L23,62L23,62z"/>
			</g>
			<g id="Path_106">
				<path class="st2" d="M34.7,61.4h-0.2l0-0.1l0,0l-0.1-0.1l0,0v-0.1l0,0l0.1-0.1h0.2l0.1-0.1h0.1l0.1-0.1H35l0.1-0.1h0.6v0.1l0,0
					v0.1l0,0V61l0,0v0.1l0,0v0l0,0v0.1l0,0l-0.3,0.1l0,0l-0.1,0.1L34.7,61.4L34.7,61.4z"/>
			</g>
			<g id="Path_107">
				<path class="st4" d="M33,60.9"/>
			</g>
			<g id="Path_108">
				<path class="st4" d="M24.8,59.9L24.8,59.9L24.8,59.9v-0.1l0,0v-0.1l0,0v-0.1l0,0v-0.1l0,0v-0.1l0,0v0l0,0l0-0.2l0,0l0.1,0.1l0,0
					l0.1,0.1l0,0l0.1,0.1h0.1l0.1,0l0,0l0.1,0.1l0,0l0.1,0.1h0.2v0.1l0,0l-0.1,0.1h-0.1l-0.1,0.1h-0.1L25,59.8h-0.1L24.8,59.9
					L24.8,59.9L24.8,59.9z"/>
			</g>
			<g id="Path_109">
				<path class="st3" d="M27.1,59.3c-0.3,0-0.8-1.3-0.6-1.5c-0.3,0-0.4-0.5-0.7-0.5c-0.7,0.3-1.8,1.2-2.4,0.8
					C23,58,22.9,57.8,23,57.5c0-0.1,0.1-0.1,0.1-0.2c0.1-0.1-0.1-1,0.3-1c0,0.2,0.4,0,0.4-0.1c0.4-0.3,0.8,0.4,1,0.6
					c0.4-0.2-0.3-0.7-0.3-0.9c0.2-0.2,2.5-0.2,2.5,0.6c0.3,0,0.3,0.8,0.3,1c0.3,0.2,0.2-0.6,0.2-0.7c0-0.8,0.5,0.2,0.6,0.3
					c0.1,0.2,1.1,1.7,1.4,1.2c-0.6-0.4-1-1.4-1.5-1.9c-0.1-0.1-0.4-0.3-0.1-0.2c0.6,0,1.2,0.3,1.6-0.4c-0.3,0.1-3.3,0-3.3-0.4h-1.3
					c0.3-0.2,1.5-1.2,1.5-1.4c-0.5,0.3-1.1,0.7-1.6,1.1c-1.7,1.3-0.7-0.9-0.7-0.9c0.2,0,0.2-0.3,0.1-0.4c0.3-0.3,0.7-0.5,1.1-0.7
					c0.1,0,1-0.2,1-0.1c0.1,0,0.3,0.2,0.5,0.2c0,0.2,0.3,0.6,0.3,0.9c0,1.1,1.2,0.9,2,0.7c0.4,0.3,1.1,0.3,1.1,1
					c-0.1,0.3-0.3,0.5-0.5,0.7c0,0.1-0.1,0.2-0.1,0.3c0,0.9,1.1,0.9,1.1,1.5c0,0.3,0.1,1-0.4,1c-0.3,0.4-1.4,0.2-1.4-0.5
					c-0.1,0-0.4-0.2-0.4-0.3C27.8,58.6,27.6,59.3,27.1,59.3z"/>
			</g>
			<g id="Path_110">
				<path class="st3" d="M26.2,59l0.1-0.1H26l-0.1-0.1l0,0l-0.1-0.1h-0.1l-0.1-0.1h-0.1l-0.1-0.1h-0.1v-0.1l0,0v0h-0.1l-0.1-0.1l0,0
					v-0.1h-0.1l-0.1-0.1l0,0v-0.1H25v-0.1H25v-0.1l0,0V58h0.4l0.1-0.1l0,0V58l0,0l0.1,0.1l0,0l0.1,0.1h0.2l0.1,0.1l0,0l0.1,0.1l0,0
					l0.1,0.1l0,0l0.1,0.1l0,0v0.1l0,0v0l0,0v0.1l0,0v0.1l0,0v0.1l0,0L26.2,59L26.2,59L26.2,59z"/>
			</g>
			<g id="Path_111">
				<path class="st5" d="M37.9,58.2c-1,0.2-2.1,0.3-3.1,0.3c-0.9,0-1.3-0.5-1.3-1.1c0-1.1,2.6-0.2,3.4-0.1c0.9,0.2,1.8,0.2,2.7,0.3
					c0.9,0-0.5,0.3-0.6,0.3C38.6,58,38.2,58.1,37.9,58.2z"/>
			</g>
			<g id="Path_112">
				<path class="st3" d="M11.4,57.3c-0.1,0-0.5-0.5-0.8-0.3c-0.6,0-1.7,0.6-1.7-0.5c0-0.9,0.4-0.8,0.9-1.2c0.2,0.2,1.2,0.1,1.2-0.4
					c0.3-0.3-0.4-1.4,1-0.7c1,0,1.6,0.2,1.6-1c0-0.8,1.4-1.3,1.6-0.6c0.3,0,1.1,0.9,1,1.1c0,0.8-0.2,0.6-0.1,1.1
					c-0.8,0-1-0.5-1.7-0.7c-0.2-0.2-0.1-0.2-0.3-0.1c0,0.3,0.8,0.7,1.1,0.8c-0.6,0.1-1.2,0.3-1.8,0.5c-0.6,0-1.2-0.2-1.7-0.5
					c-0.1,0.1-0.1,0.2-0.1,0.3c0.3,0,1,0.5,1.1,0.5c-0.6,0.2-1.2,0.3-1.8,0.2c-0.1,0.1-0.9,0.2,0.2,0.2c0.7,0.1,1.3,0,1.9-0.2
					c-0.2,0.2-0.9,1.1-0.8,1.3c0.3,0,0.8-0.9,1-1.2c0.4-0.5,1.1-0.7,1.7-0.7c0.6-0.2-1.3,1.1-0.5,1.1c0.1-0.3,1.3-1.4,1.3-1.1h0.7
					c-0.7,0.3,0.1,0.7,0.1,0.7c1.6,0.4,0.2,1.3-1.1,1.3c-0.3,0-0.4,0.2-0.6,0.6c-0.3,0.3-1-1-1.6-0.3c-0.5,0.5-0.5,0.9-1.4,0.9
					C11.4,58.2,11.5,57.3,11.4,57.3z"/>
			</g>
			<g id="Path_113">
				<path class="st5" d="M31,58.2L31,58.2L31,58.2L31,58.2l0-0.1l0,0v-0.1l0,0V58l0,0v-0.1h0.2l0.2-0.1l0,0l0.2-0.1l0,0l0.2-0.1l0,0
					l0.2-0.1l0,0l0.2-0.1l0,0l0.2-0.1l0,0l0.3-0.2h0.2l0.2,0.1l0,0l-0.2,0.2l0,0l-0.2,0.1l0,0l-0.2,0.1l0,0l-0.2,0.1l0,0L32,57.7
					l0,0l-0.2,0.1l0,0l-0.2,0.1l0,0l-0.2,0.1l0,0L31.3,58l0,0l-0.1,0.1l0,0l-0.1,0.1l0,0l-0.1,0.1l0,0v0.1L31,58.2L31,58.2z"/>
			</g>
			<g id="Path_114">
				<path class="st5" d="M30.7,57.6c-0.3,0-0.3-0.2-0.5-0.2c0-0.1-0.1-0.2-0.1-0.3c0-0.9,1-1.9,1.6-2.5c0.8-0.6,1.6-1.1,2.5-1.6
					c-0.8,0.9-1.5,1.9-1.9,3C32.1,56.5,31.5,57.6,30.7,57.6L30.7,57.6z"/>
			</g>
			<g id="Path_115">
				<path class="st3" d="M19.4,57.3c-0.8-0.3-0.3-1.2,0.3-1.6c0.3-0.5,0.2-0.3,0.2-0.8c0-0.8-2.1-0.4-2.2-0.4
					c-0.5,0-1.3-0.2-1.3-0.8c0-0.1,0.6,0,1-0.2c1.1-0.5-0.1-1.6-0.8-1.6c-0.1-0.1-0.5-0.3-0.6-0.4c-0.2-0.8-0.1-1.3,0.5-1.6
					c0.1,0.1,1.4,0.6,1.4,0.7s0.5,0.5,0.6,0.6c0.2,0.2,1.3-0.3,1.3,0.2l0.4,0.1c0.8,0-0.3,1.2,1.2,1.2c0.6,0,0.9-0.4,1.4-0.1
					c1.1,0.8-0.4,2.4-0.5,3.4c-0.3-0.8-0.5-1.7-0.4-2.6c-0.3,0-0.2-0.1-0.3,0.2c0,0.3,0,0.7,0.1,1c-0.2-0.1-0.3-0.3-0.5-0.5
					c-0.1-0.2-1-0.8-1-0.9c-0.3,0-0.5-2.2-0.8-1.8c0,0.2,0,1.2,0.2,1.4c-1.1-0.4-1.9-1.3-2.4-2.4h-0.3c0.3,1,1,1.8,1.9,2.4
					c1,0.6-0.9,0.2-0.9,0.5c0,0.5,1.5,0.2,1.8,0.1c0.8,0.5,1.4,1.1,1.9,1.9c-0.3,0-1.5-0.1-1.6,0.2c0.1,0.3,1.6,0,1.8,0.5
					c0,0.3,0,0.7,0.1,1c-0.3,0.1-0.8,0-1.1,0.1C21,57.4,19.4,57.3,19.4,57.3z"/>
			</g>
			<g id="Path_116">
				<path class="st5" d="M44.5,56.8c-1.4,0.6-3,0.7-4.5,0.3c-0.4-0.1,0.1-0.1,0.3-0.2c0.6-0.1,1.2-0.3,1.7-0.6
					C42.7,56.7,43.6,56.8,44.5,56.8z"/>
			</g>
			<g id="Path_117">
				<path class="st5" d="M36.4,55.6c0.5,0,1.1,0,1.6,0.1c1,0.2,2,0.4,3,0.5c0.1,0,0.7,0.1,0.3,0.1c-0.3,0.1-0.7,0.2-1,0.3
					c-0.6,0.3-3.5,0.6-3.8,0.3C35.5,56.9,35.7,55.6,36.4,55.6z"/>
			</g>
			<g id="Path_118">
				<path class="st5" d="M33.2,56.9c-1.8-0.9,2.2-4,2.9-4.4c-0.8,1.2-1.4,2.5-1.9,3.8C33.8,56.6,33.8,56.9,33.2,56.9L33.2,56.9z"/>
			</g>
			<g id="Path_119">
				<path class="st5" d="M42.2,55.9c-0.3,0-0.9,0-0.1-0.3c0.9-0.3,1.8-0.6,2.6-1.1c0.3,0,0.5,0.2,0.7,0.2c0.8,0,1.5,0,2.3-0.1
					c-1,0.5-2.1,1-3.1,1.3C43.4,56,44,55.8,42.2,55.9z"/>
			</g>
			<g id="Path_120">
				<path class="st5" d="M35.5,55.6c-0.3,0-0.1-0.1-0.2-0.1c-1-1,2.5-3.7,2.7-3.5C37.1,53.3,37.3,55,35.5,55.6L35.5,55.6z"/>
			</g>
			<g id="Path_121">
				<path class="st5" d="M42.4,55c0.4,0-0.1,0.1-0.1,0.1c-0.8,0.3-1.6,0.4-2.5,0.5c-0.7,0-1.4,0.2-1.4-0.7c0-1.1,2.2-0.5,2.8-0.2
					C41.5,54.8,42,54.9,42.4,55z"/>
			</g>
			<g id="Path_122">
				<path class="st5" d="M30.4,55.3L30.4,55.3L30.4,55.3l-0.1-0.1l0,0l-0.1-0.1l0,0L30.1,55H30V55l0,0l-0.1,0l0,0v-0.1l0,0l0.2-0.2
					l0,0l0.3-0.2l0,0l0.2-0.2l0,0l0.3-0.2l0,0l0.3-0.2l0,0l0.4-0.2l0,0l0.4-0.1l0,0l0.4-0.2l0,0l-0.1,0.2l0,0l-0.1,0.1l0,0L32,53.7
					l0,0l-0.1,0.1l0,0l-0.2,0.1l0,0L31.6,54l0,0l-0.1,0.1l0,0l-0.1,0.1l0,0l-0.1,0.1l0,0l-0.2,0.2l0,0L31,54.6l0,0L31,54.7l0,0
					l0,0.1l0,0l-0.1,0.1l0,0v0.1l0,0l-0.1,0.1l0,0L30.7,55l0,0l-0.1,0.1l0,0l-0.1,0.1l0,0l-0.1,0.1l0,0v0.1L30.4,55.3L30.4,55.3z"/>
			</g>
			<g id="Path_123">
				<path class="st3" d="M9.5,53.4c0-0.5,1.1-0.8,1.1-1.5c0-0.4-1-0.9-1.1-1.4c0-0.8,0.9-0.4,0.7-1.2c0-0.2-0.5-0.7-0.7-0.7
					c0-0.1-0.6-1.1-0.4-1.4c0.1-0.2,0.5-0.7,0.8-0.7c0.5-0.2,0.5,0.2,0.8,0.1c0.6,0.6,0.3,2.2,1.9,1.1c0.3,0.1,0.3,0.3,0.4,0.5
					c0.4,0,0.2,1.3,0.6,1.3c0.4,0.4,1.3-0.3,1.5,0.1c0.3,0,0.6,0.2,0.7,0.5c0.1,0.2-0.2,0.4-0.2,0.6c0,0-0.4,0.5-0.3,0.7
					c0.5,0.8-1.4,0.3-0.9-0.1c0-0.2,0-0.3,0.1-0.5c-0.6,0-0.1,1.1-0.7,1.1c0,0-0.1,0.1-0.1,0.1c-0.4-0.1,0.1,0.8-0.3,0.1
					c-0.6-0.8-0.9-1.8-0.7-2.8c0.1-0.3,0-0.7,0.1-1c-0.4,0-0.4,1.2-0.4,1.5c0,0.6-1.1-1-1.2-1.1c-0.3-0.4-0.8-1-1.1-1.4
					c-0.5,0.2,1.4,2.3,1.7,2.7c0.4,0.5,0.3,0.4-0.2,0.3c-0.5,0-0.9,0-1.3-0.1c-0.2,0.4,1.6,0.4,2,0.5c0.2,0.5,0.5,1.1,0.8,1.5
					c0.1,0.3,0.5,0,0,0.4s-1.1-0.1-1.4,0.1c-0.6,0,1,0.6,0.3,0.7c-0.2,0-0.1,0-0.3,0.1c-0.3,0.1-0.1,0-0.5,0.2
					c-0.2,0.1-0.6,0.8-0.5,0.8C10.1,54.4,9.6,54,9.5,53.4z"/>
			</g>
			<g id="Path_124">
				<path class="st5" d="M42,52.9c1,0,2,0.3,3,0.3c-1,0.8-4.4,1.8-4.1,0.1C41,53,41.8,52.9,42,52.9z"/>
			</g>
			<g id="Path_125">
				<path class="st5" d="M38.2,54.2c-0.2,0-0.3-0.1-0.4-0.2c0-1.6,1-2,2.1-2.8c0.2-0.1,0.3-0.4,0.5-0.4c-0.2,0.4-0.5,1-0.7,1.5
					C39.5,52.9,39.3,54.2,38.2,54.2L38.2,54.2z"/>
			</g>
			<g id="Path_126">
				<path class="st5" d="M47.2,53.7C46.4,54,45.7,54.1,45,54c-0.3-0.2-0.3-0.2,0-0.3c0.8-0.6,1.8-0.9,2.8-1c0.5,0,1,0,1.5-0.1
					C48.6,53.1,47.9,53.5,47.2,53.7z"/>
			</g>
			<g id="Path_127">
				<path class="st5" d="M40.4,53c-0.7,0,0-1.1,0.1-1.3c0.6-0.7,1.2-1.3,2-1.8C41.6,50.7,41.7,53,40.4,53L40.4,53z"/>
			</g>
			<g id="Path_128">
				<path class="st5" d="M44.7,53c0.6-0.2,1.2-0.4,1.7-0.8c0.1,0,0.6,0.1,0.8,0.1c-0.6,0.4-1.4,0.6-2.1,0.7H44.7L44.7,53z"/>
			</g>
			<g id="Path_129">
				<path class="st5" d="M43.1,52.5c-0.1,0-0.3-0.7,0.1-0.7c0.3-0.3,2.3,0.1,3,0.1C45.6,52.4,43.4,53.1,43.1,52.5z"/>
			</g>
			<g id="Path_130">
				<path class="st5" d="M51.4,50.5c-0.6,0.8-3,2.5-4,1.6c-0.1-0.1-0.1-0.4,0-0.5c0,0,0.1-0.1,0.1-0.1c0.6-0.3,1.2-0.6,1.8-0.7
					C50.1,50.6,50.7,50.7,51.4,50.5z"/>
			</g>
			<g id="Path_131">
				<path class="st5" d="M42.5,51.7c-0.8-0.6,0.7-2.1,1.2-2.6c0,0-0.2,1.2-0.2,1.3C43.4,51,43.1,51.7,42.5,51.7z"/>
			</g>
			<g id="Path_132">
				<path class="st5" d="M47.5,50.4c0.3,0,0.6,0,0.8-0.1c-0.4,0.5-3.7,1.8-3.8,0.8C44.3,49.8,46.8,50.4,47.5,50.4z"/>
			</g>
			<g id="Path_133">
				<path class="st3" d="M6.5,50.4c-0.1,0-0.3-0.6-0.1-0.6c0.3-0.1,0.4-0.1,0.7-0.3l0,0c0.2-0.3,0.2-0.7-0.1-1
					c0-0.3-1.1-0.2-1.4-0.2c-0.5-0.1-1.4-0.4-1-1.2c0.3-0.2,1.3-0.6,1.3-1.1c-0.4-0.4-0.8-0.7-1.1-1.1c-0.1-0.4-0.1-0.9,0.2-1.3
					c0.1,0,0.4-0.4,0.5-0.2c0.3,0,0.5,0.1,0.8,0.1c0.2,0.5,0.9,1.6,1.5,1.3c0.2,0,0.4-0.5,0.8-0.5c0.7,0,1,0.7,1.4,1.1
					c0.4,0.2,0,0.6,0.2,0.8c-0.5,0-1.5,0.2-1.5,0.7c-0.1,0-0.3,0.2-0.4,0.2c-0.3,0.3,0-0.1-0.3-0.1C8,46.3,8,45.6,8.1,45
					c-0.2-0.7-0.3,1.4-0.3,1.4c0.2,0.8-0.4,0-0.5-0.2C6.6,45.6,6,44.8,5.5,44C5,44.2,7.1,46.7,7.6,47c-0.6,0.1-1.1,0.1-1.7,0
					c-0.1,0.2-0.1,0.2,0.1,0.2c0,0,2,0.2,2.2,0.2V48c0,0.9,0.4,0,0.4,0.6c0,0.2,0,0.4,0.2,0.6c-0.6,0-0.4,0.4-0.1,0.4
					c0.6,0,0,0.5,0,0.6c0.5,0,0.2,0.3-0.1,0.4C8.7,51.3,7.8,51,7.4,51C7.1,51,6.7,50.4,6.5,50.4z"/>
			</g>
			<g id="Path_134">
				<path class="st5" d="M44.2,50.5c-1-0.5,0.7-2.3,1.2-2.7c-0.1,0.8-0.3,1.7-0.7,2.5C44.7,50.3,44.2,50.7,44.2,50.5z"/>
			</g>
			<g id="Path_135">
				<path class="st5" d="M50.9,48.9c0.5-0.2,1.1-0.4,1.7-0.5c0.1,0.3-2.9,2.9-3.3,1.8c0-0.2-0.4-0.7,0.5-1S50.5,49,50.9,48.9z"/>
			</g>
			<g id="Path_136">
				<path class="st5" d="M50.8,47.9c-0.1-0.1,0.6-0.9,1.1-1.2c0.4-0.2,0.9-0.3,1.4-0.4c0.4,0,0.7-0.1,1-0.2c-0.7,1-1.2,1.8-2.3,1.9
					c-0.2,0.1-0.5,0.2-0.8,0.1C50.8,48.1,50.8,48,50.8,47.9z"/>
			</g>
			<g id="Path_137">
				<path class="st5" d="M48.8,48.8c0.5,0,0.9,0,1.4,0c-1.2,0.6-1.9,1.4-3.3,1.1c-0.1,0-0.5-0.2-0.2-0.7
					C47.3,48.9,48,48.7,48.8,48.8z"/>
			</g>
			<g id="Path_138">
				<path class="st5" d="M45.9,49.3c-0.3,0-0.2-0.2-0.2-0.5c0-0.8,0.9-1.6,1.4-2.2c-0.4,0.7-0.5,1.5-0.6,2.4
					C46.3,49.2,45.9,49.5,45.9,49.3L45.9,49.3z"/>
			</g>
			<g id="Path_139">
				<path class="st5" d="M51.7,46c-0.5,0.5-3.1,3.6-4,2.3c0-0.7,1.5-1,1.9-1.1C50.5,47,51.2,46.5,51.7,46z"/>
			</g>
			<g id="Path_140">
				<path class="st5" d="M51.9,45.6c0.1-0.9,0.9-1.6,1.7-1.5c0,0,0,0,0,0c0.6,0,1.1-0.5,1.6-0.7C54.4,44.5,53.4,46.5,51.9,45.6z"/>
			</g>
			<g id="Path_141">
				<path class="st5" d="M47.2,48.2c-1-0.5,1.7-3.2,2.2-3.8c-0.2,0.7-0.5,1.5-0.9,2.1C48.4,46.9,48.1,48,47.2,48.2L47.2,48.2z"/>
			</g>
			<g id="Path_142">
				<path class="st5" d="M48.9,47.1c-0.6-0.8,0.7-1.5,0.9-1.7c0.4-0.3,0.9-0.6,1.3-1c-0.1,0.4-0.3,0.8-0.5,1.2
					C50,46.9,49.7,46.9,48.9,47.1L48.9,47.1z"/>
			</g>
			<g id="Path_143">
				<path class="st5" d="M51.4,41c0,0.9-0.1,1.7-0.3,2.5c-0.2,0.5-0.7,1.1-1,0.8c-0.5-0.5-0.3-0.6,0.2-1.5
					C50.6,42.2,51,41.6,51.4,41z"/>
			</g>
			<g id="Path_144">
				<path class="st5" d="M53.6,43.6c-0.9,0-0.4-1.1,0.5-1.3c0.5-0.1,1-0.3,1.5-0.6C55.2,42.5,54.5,43.6,53.6,43.6z"/>
			</g>
			<g id="Path_145">
				<path class="st3" d="M1.7,37.9c-0.2,0-0.5-0.7-0.2-0.8c0.3-0.3,1.4-0.6,0.8-1.3c-0.5-0.4-0.8-0.9-0.8-1.5c0-0.7,0.4-0.8,1-0.8
					c0.3,0.2,0.5,0.7,0.7,0.8C3.5,34.7,3.5,34,3.7,35c0.3,1.2,0.8,2.4,1.5,3.4c-0.1,0.5-0.3,0.1-0.3-0.1c-0.3-0.7-0.7-1.4-1.1-2
					C3.5,35.8,3.2,35.4,3,35c0,0-0.1,0-0.1,0.1c0.3,0.8,0.9,1.4,1.2,2.2c1,1.7,0.6,1.5-0.6,0.2c-0.2,0.3,0.8,0.9,0.9,1.2
					c0.4,0.4,0.6,1,1,1.4c-0.2,0.2,0.2,0.2-0.1,0.5c-0.5,0.5,0.5,0,0.1,0.4c0,0.1-1.4,0.3-0.6,0.3C5,41.4,5.2,41.4,5,41.7
					c-0.2-0.2-0.2-0.2-0.3-0.1c-0.3,0.3-0.2,0.4-0.2,0.6c0.2,0-0.5,0.7-0.9,0.1c-0.2,0.3,0.2,0.7,0.5,0.8c-0.3,0-0.4-0.4-0.5-0.4
					c0,0-0.5-0.2-0.6-0.3c-0.3-0.2-0.7-1.4-0.4-1.7C4.1,39.3,2.6,38.9,1.7,37.9z"/>
			</g>
			<g id="Path_146">
				<path class="st5" d="M52.8,39.1c-0.5,1.3,0.7,2.8-0.6,3.6l0,0C50.5,42.7,52.7,39.4,52.8,39.1z"/>
			</g>
			<g id="Path_147">
				<path class="st5" d="M55.2,40c0.4-0.2,0.8-0.5,1.1-0.9c0.2,0.4-1.3,3.2-2.1,2.4c-0.4-0.4,0-0.6,0-0.7C54.2,40.8,55,40.2,55.2,40
					z"/>
			</g>
			<g id="Path_148">
				<path class="st6" d="M1.3,39.8l-0.2-0.1l0,0L1,39.6l0,0l-0.1-0.1l0,0l-0.1-0.2l0,0l-0.2-0.1l0,0l-0.1-0.1l0,0l-0.1-0.2l0,0
					l-0.1-0.2l0,0v-0.1l0,0l0.3-0.2l0,0v0.1h0.7l0.2,0.1l0,0v0.1h0.1v0.1h0.1l0.1,0.1h0v0.1l0,0L1.8,39l0,0l-0.1,0.1l0,0l-0.1,0.1
					l0,0l-0.1,0.1l0,0l-0.1,0.2l0,0l-0.1,0.1l0,0l-0.1,0.1l0,0L1.3,39.8L1.3,39.8z"/>
			</g>
			<g id="Path_149">
				<path class="st5" d="M54.9,39.6c-1.3-0.5,0.7-2.7,1.2-3.8C56.1,37,56.1,40.1,54.9,39.6z"/>
			</g>
			<g id="Path_150">
				<path class="st3" d="M6.7,41.2c0,0-0.6,0.4-0.3,0.9s0.4,0.2,0.8,0.5s-0.5,0.8,0,1.3s0.6-0.6,0.9-0.4C8.4,43.5,6.6,41.2,6.7,41.2
					z"/>
			</g>
			<g id="Path_151">
				<path class="st3" d="M30.3,60.3l2.7,1.1l-1.2,0.2l-1.9-1L30.3,60.3z"/>
			</g>
			<g id="Path_152">
				<path class="st5" d="M25.1,61.7l3.8-2l0.3,0.2l-3,1.9L25.1,61.7z"/>
			</g>
			<g id="Path_153">
				<path class="st5" d="M23.3,61.3l3.4-1.5l0.3,0l-2.8,1.5h-0.5L23.3,61.3z"/>
			</g>
			<g id="Path_154">
				<path class="st3" d="M32,59.8l2.4,1l0.6-0.3l-2.8-0.9L32,59.8z"/>
			</g>
			<g id="Path_155">
				<path class="st3" d="M37.9,58.5l6.9-0.6l-0.6,1.3l-5.4-0.1L37.9,58.5z"/>
				<path class="st1" d="M44.2,59.4L44.2,59.4l-5.5-0.1l-1.1-0.8l7.4-0.6L44.2,59.4z M38.8,59.1l5.3,0.1l0.5-1.1l-6.5,0.5L38.8,59.1
					z"/>
			</g>
			<g id="Path_156">
				<path class="st3" d="M40.7,61.3l-8.8-2.5l0.4-0.4l8.8,1.4L40.7,61.3z"/>
				<path class="st1" d="M40.8,61.4l-0.1,0l-9-2.6l0.6-0.6l0.1,0l8.9,1.4L40.8,61.4z M32.1,58.7l8.5,2.4l0.3-1.3l-8.6-1.4L32.1,58.7
					z"/>
			</g>
			<g id="Path_157">
				<path class="st1" d="M21.2,60.2c-0.1,0-0.2,0-0.3-0.1c-0.3-0.2-0.4-0.6-0.4-0.7c-0.1-0.2-0.2-0.5-0.3-0.7c0-0.1,0-0.1,0-0.1
					v-0.4l0.2,0.4c0,0,0,0,0,0c0,0,0.2,0.2,1,0.4c0.4,0.1,0.8,0.3,0.8,0.6c0,0.2-0.2,0.4-0.6,0.6C21.4,60.2,21.3,60.2,21.2,60.2z
					 M20.4,58.9c0.1,0.2,0.1,0.3,0.2,0.5c0,0.1,0.1,0.4,0.3,0.5c0.1,0.1,0.3,0.1,0.5,0c0.3-0.1,0.5-0.2,0.5-0.4
					c0-0.2-0.3-0.3-0.7-0.4C20.8,59.1,20.6,59,20.4,58.9z"/>
			</g>
			<g id="Path_158">
				<path class="st6" d="M28.8,53.2c14.7,0,26.6-11.9,26.6-26.6C55.4,11.9,43.5,0,28.8,0S2.3,11.9,2.3,26.6c0,0,0,0,0,0
					C2.3,41.2,14.2,53.1,28.8,53.2z"/>
				<path class="st1" d="M28.8,53.3C28.8,53.3,28.8,53.3,28.8,53.3L28.8,53.3c-14.7,0-26.7-12-26.7-26.7c0-14.7,12-26.7,26.7-26.7
					c0,0,0,0,0,0c7.1,0,13.8,2.8,18.9,7.8c5,5,7.8,11.7,7.8,18.9c0,7.1-2.8,13.8-7.8,18.9C42.7,50.5,36,53.3,28.8,53.3z M28.8,53
					C28.8,53,28.8,53,28.8,53c7.1,0,13.7-2.8,18.7-7.7c5-5,7.8-11.6,7.8-18.7c0-7.1-2.7-13.7-7.7-18.7S35.9,0.1,28.8,0.1
					c0,0,0,0,0,0C14.2,0.1,2.4,12,2.4,26.6C2.4,41.1,14.3,53,28.8,53L28.8,53z"/>
			</g>
			<g id="Path_159">
				<path class="st5" d="M53.5,38.8c0-0.1,0.6-1.3,0.4-0.5c0,0.3,0.5,2.6-0.3,2.9c-0.6,0.2-0.5-0.9-0.4-1.1
					C53.3,39.7,53.5,39.2,53.5,38.8z"/>
			</g>
			<g id="Path_160">
				<path class="st7" d="M28.8,51.3c13.7,0,24.7-11.1,24.7-24.7c0-13.7-11.1-24.7-24.7-24.7C15.2,1.8,4.1,12.9,4.1,26.6c0,0,0,0,0,0
					C4.1,40.2,15.2,51.3,28.8,51.3z"/>
				<path class="st1" d="M28.8,51.4C28.8,51.4,28.8,51.4,28.8,51.4L28.8,51.4C15.2,51.4,4,40.2,4,26.6C4,19.9,6.6,13.7,11.3,9
					C16,4.3,22.2,1.7,28.8,1.7c0,0,0,0,0,0c6.6,0,12.9,2.6,17.6,7.3s7.3,10.9,7.3,17.6c0,6.6-2.6,12.9-7.3,17.6
					C41.7,48.8,35.5,51.4,28.8,51.4z M28.8,51.2C28.8,51.2,28.8,51.2,28.8,51.2c6.6,0,12.8-2.6,17.4-7.2c4.7-4.7,7.2-10.8,7.2-17.4
					s-2.6-12.8-7.2-17.4C41.6,4.5,35.4,2,28.8,1.9c0,0,0,0,0,0c-6.6,0-12.8,2.6-17.4,7.2C6.8,13.8,4.2,20,4.2,26.6
					C4.2,40.1,15.3,51.2,28.8,51.2L28.8,51.2z"/>
			</g>
			<g id="Ellipse_4">
				<circle class="st8" cx="28.8" cy="26.6" r="21.1"/>
				<path class="st1" d="M28.8,47.8c-9.9,0-18.8-7-20.8-17.1c-2.3-11.5,5.2-22.7,16.6-25c5.6-1.1,11.2,0,15.9,3.2
					c4.7,3.1,7.9,7.9,9,13.5c2.3,11.5-5.2,22.7-16.6,25C31.6,47.7,30.2,47.8,28.8,47.8z M24.7,5.9l0,0.1C13.4,8.2,6,19.3,8.2,30.7
					C10.5,42,21.6,49.4,32.9,47.2c11.4-2.3,18.7-13.4,16.5-24.7C47.1,11.1,36.1,3.7,24.7,6L24.7,5.9z"/>
			</g>
			<g id="Path_161">
				<path class="st9" d="M28.8,43.6c9.4,0,17-7.6,17-17c0-9.4-7.6-17-17-17s-17,7.6-17,17c0,0,0,0,0,0C11.8,36,19.4,43.6,28.8,43.6z
					"/>
			</g>
			<g id="Path_162">
				<path class="st6" d="M33.9,38.3l12.1,5l-4.8-12l12.1-5L41,21.2l5-12l-12,4.9L28.7,2l-5.2,12l-12-4.9l5,12l-12,5.1l11.9,5
					l-4.8,12l12.1-5l5.1,13L33.9,38.3z"/>
			</g>
			<g id="Path_163">
				<path class="st4" d="M28.7,48.8l4.6-11.7l10.9,4.5l-4.3-10.8l10.9-4.4l-11.1-4.6l4.5-10.8l-10.8,4.4L28.7,4.4L24,15.3l-10.8-4.4
					l4.5,10.8L6.9,26.3l10.7,4.4l-4.3,10.8l10.9-4.5L28.7,48.8z"/>
			</g>
			<g id="Path_164">
				<path class="st8" d="M31.4,33.8c-0.2,0.3-0.8,1.1-1.2,1.1c-0.3,0-0.8,0-0.9-0.1c-0.3,0-0.1-0.2-0.5-0.2c-1,0.7-2.4,0.5-3.1-0.5
					c0,0-0.1-0.1-0.1-0.1c-0.5-0.6-0.9-1.3-1.1-2c0-0.2-0.7-2.4-0.7-2.8c0,0.1-0.2,2.7,0.2,2.7c-0.6,0-1-3-1-3
					c-0.2-2.2,0.4-4.3,1.7-6.1c-0.2,2.1-0.1,4.3,0.4,6.3c0,0.6,0.7,2.8,1.1,2.8c0,0.2,0.5,0.2,0.5-0.2c0-0.3,0-0.7-0.2-1
					c-0.6-1-1-2-1.2-3.1c-0.1-0.3-0.1-0.6-0.1-0.9c-0.1-2.4,0.3-6.2,1.9-8.1c0.3-0.5,0.4-0.8,0.3-0.1c0.1,1.8,0.3,3.7,0.6,5.5
					c0.3,1.3,0.6,1.4,0.8,2.6c0.1,0.7,0.1,1.5,0,2.2c-0.2,1.2-0.3,2.3-0.4,3.5c0.2,0.5,0,0.6,0.6,0.6s0.8-2,0.7-2.5
					c0.1-1.3-0.1-2.7-0.6-3.9c-0.2-0.3-0.5-1.3-0.6-1.7c-0.1-0.3-0.2-0.7-0.2-1c-0.4-2.1-0.7-5.3,0.2-7.4c0.1-0.3,0.2-0.6,0.3-0.8
					c-0.1,0.6,0,1.2,0.1,1.7c0,1.4,2.7,6.8,2.9,7.9c0,0,0.3,0.9,0.4,1.3c0.2,1.6,0.2,3.2,0,4.9C32.1,32.3,31.8,33.1,31.4,33.8z"/>
			</g>
			<g id="Path_165">
				<path class="st8" d="M31.5,33.8c0.5-0.9,0.9-1.8,1.1-2.8c0.2-1.5,0.3-3,0.2-4.5c-0.1-0.5-0.2-0.9-0.4-1.4
					c-0.2-0.7-0.4-1.4-0.7-2c-0.8-1.5-1.2-3.1-1.3-4.8c0.2,0.3,0.4,0.6,0.6,1c0.6,1.1,1.6,2.2,2.2,3.3c0.8,1.1,1.3,2.4,1.6,3.7
					c0.1,1.2,0,2.5-0.4,3.6c-0.6,1.6-1.6,3-2.9,4L31.5,33.8z"/>
			</g>
			<g id="Path_166">
				<path class="st1" d="M20.1,46.8c0.5,0,1,0.4,1,1s-0.4,1-1,1s-1-0.4-1-1c0-0.3,0.1-0.5,0.3-0.7C19.5,46.9,19.8,46.8,20.1,46.8z"
					/>
			</g>
			<g id="Path_167">
				<path class="st10" d="M19.9,47c0.4,0,0.8,0.4,0.8,0.8c0,0.4-0.4,0.8-0.8,0.8s-0.8-0.4-0.8-0.8S19.5,47,19.9,47L19.9,47z"/>
			</g>
			<g id="Path_168">
				<path class="st1" d="M36.9,47.1c0.4-0.4,1-0.4,1.4,0c0.4,0.4,0.4,1,0,1.4c0,0,0,0,0,0c-0.4,0.4-1,0.4-1.4,0
					C36.5,48.2,36.5,47.5,36.9,47.1C36.9,47.1,36.9,47.1,36.9,47.1z"/>
			</g>
			<g id="Path_169">
				<path class="st10" d="M36.9,47.3c0.3-0.3,0.8-0.3,1.1,0c0,0,0,0,0,0c0.3,0.3,0.3,0.8-0.1,1.1c-0.3,0.3-0.8,0.3-1.1,0
					C36.6,48.1,36.6,47.6,36.9,47.3C36.9,47.3,36.9,47.3,36.9,47.3z"/>
			</g>
			<g id="Path_170">
				<path class="st1" d="M49.1,35.4c0-0.5,0.4-1,1-1c0.5,0,1,0.4,1,1c0,0.5-0.4,1-1,1c-0.3,0-0.5-0.1-0.7-0.3
					C49.2,35.9,49.1,35.7,49.1,35.4z"/>
			</g>
			<g id="Path_171">
				<path class="st10" d="M49.2,35.5c0-0.4,0.3-0.8,0.8-0.8c0.4,0,0.8,0.3,0.8,0.8c0,0.4-0.3,0.8-0.8,0.8c0,0,0,0,0,0
					C49.5,36.3,49.2,36,49.2,35.5z"/>
			</g>
			<g id="Ellipse_5">
				<circle class="st1" cx="50" cy="17.9" r="1"/>
			</g>
			<g id="Path_172">
				<path class="st10" d="M49.5,18.5c-0.3-0.3-0.3-0.8,0-1.1c0.3-0.3,0.8-0.3,1.1,0s0.3,0.8,0,1.1c-0.1,0.1-0.2,0.2-0.3,0.2
					C50,18.8,49.7,18.7,49.5,18.5z"/>
			</g>
			<g id="Path_173">
				<path class="st1" d="M37.6,6.4c-0.5,0-1-0.4-1-1c0-0.5,0.4-1,1-1c0.5,0,1,0.4,1,1c0,0,0,0,0,0C38.6,6,38.2,6.4,37.6,6.4z"/>
			</g>
			<g id="Path_174">
				<path class="st10" d="M37.7,6.3c-0.4,0-0.8-0.3-0.8-0.8c0,0,0,0,0,0c0-0.4,0.3-0.8,0.8-0.8c0.4,0,0.8,0.4,0.8,0.8
					C38.5,5.9,38.2,6.3,37.7,6.3z"/>
			</g>
			<g id="Ellipse_6">
				<ellipse class="st1" cx="20.1" cy="5.4" rx="1" ry="1"/>
			</g>
			<g id="Path_175">
				<path class="st10" d="M20.8,5.9c-0.3,0.3-0.8,0.3-1.1,0c-0.3-0.3-0.4-0.8-0.1-1.1c0.3-0.3,0.8-0.4,1.1-0.1c0,0,0,0,0.1,0.1
					C21.1,5.1,21.1,5.6,20.8,5.9z"/>
			</g>
			<g id="Path_176">
				<path class="st1" d="M8.6,17.8c0,0.5-0.4,1-1,1c-0.5,0-1-0.4-1-1c0-0.5,0.4-1,1-1c0.3,0,0.5,0.1,0.7,0.3
					C8.5,17.3,8.6,17.6,8.6,17.8z"/>
			</g>
			<g id="Path_177">
				<path class="st10" d="M8.5,17.7c0,0.4-0.4,0.8-0.8,0.8s-0.8-0.4-0.8-0.8s0.4-0.8,0.8-0.8l0,0C8.1,16.9,8.5,17.3,8.5,17.7z"/>
			</g>
			<g id="Path_178">
				<path class="st1" d="M8.3,34.7c0.4,0.4,0.4,1,0,1.4s-1,0.4-1.4,0c-0.4-0.4-0.4-1,0-1.4C7.3,34.3,7.9,34.3,8.3,34.7
					C8.3,34.7,8.3,34.7,8.3,34.7z"/>
			</g>
			<g id="Path_179">
				<path class="st10" d="M8.2,34.7c0.3,0.3,0.3,0.8-0.1,1.1c-0.3,0.3-0.8,0.3-1.1,0c-0.3-0.3-0.3-0.8,0-1.1
					C7.3,34.4,7.8,34.4,8.2,34.7C8.2,34.7,8.2,34.7,8.2,34.7z"/>
			</g>
			<g id="Path_180">
				<path class="st6" d="M8.7,51.3l0,1.3c0,0-1.6,0-1.6-0.5S7.8,51.4,8.7,51.3z"/>
			</g>
			<g id="Path_181">
				<path class="st6" d="M12.4,58.6l1.2,0.7c0,0-0.7,1.3-1.1,1.1S12.1,59.4,12.4,58.6z"/>
			</g>
			<g id="Path_182">
				<path class="st6" d="M29.8,54.7l-0.8-1c0,0,1-0.9,1.3-0.6S30.3,54.2,29.8,54.7z"/>
			</g>
			<g id="Path_183">
				<path class="st6" d="M22.9,59l1.1,0.9c0,0-0.9,1.1-1.3,0.9S22.5,59.8,22.9,59z"/>
			</g>
			<g id="Path_184">
				<path class="st1" d="M41.6,57.3c-0.5,0-0.9-0.4-1-0.9c-0.1-0.6,0.3-1.1,0.9-1.1c1.2-0.2,2.4-0.5,3.6-0.9
					c0.5-0.2,1.1,0.1,1.3,0.6c0.2,0.5-0.1,1.1-0.6,1.3c-1.3,0.5-2.7,0.8-4,1C41.6,57.3,41.6,57.3,41.6,57.3z"/>
			</g>
			<g id="Path_185">
				<path class="st1" d="M42.7,56c-0.4,0-0.9-0.3-1-0.8c-0.1-0.5,0.2-1.1,0.7-1.2c1.4-0.4,2.7-0.9,4-1.6c0.5-0.3,1.1-0.1,1.4,0.4
					c0.3,0.5,0.1,1.1-0.4,1.4C46,55,44.5,55.6,43,56C42.9,56,42.8,56,42.7,56z"/>
			</g>
			<g id="Path_186">
				<path class="st1" d="M46.3,52.8c-0.4,0-0.7-0.2-0.8-0.6c-0.2-0.5,0-1,0.5-1.2c1.2-0.5,2.3-1,3.3-1.7c0.4-0.3,1-0.1,1.2,0.3
					c0.3,0.4,0.1,1-0.3,1.2c-1.1,0.7-2.4,1.4-3.6,1.9C46.5,52.8,46.4,52.8,46.3,52.8z"/>
			</g>
			<g id="Path_187">
				<path class="st1" d="M48.6,51.2c-0.3,0-0.6-0.2-0.8-0.5c-0.2-0.4-0.1-1,0.4-1.2c0,0,1.5-0.8,2.8-1.7c0.4-0.3,1-0.2,1.3,0.2
					c0.3,0.4,0.2,1-0.2,1.3c-1.4,1-3,1.8-3,1.8C48.9,51.2,48.8,51.2,48.6,51.2z"/>
			</g>
			<g id="Path_188">
				<path class="st1" d="M50.3,49.6c-0.4,0-0.7-0.2-0.8-0.6c-0.2-0.5,0-1,0.5-1.2c0.9-0.4,1.8-1,2.5-1.7c0.3-0.4,0.9-0.4,1.3,0
					c0.4,0.3,0.4,0.9,0,1.3c-0.9,0.9-1.9,1.6-3.1,2.1C50.5,49.6,50.4,49.6,50.3,49.6z"/>
			</g>
			<g id="Path_189">
				<path class="st1" d="M51.5,47.1c-0.3,0-0.6-0.2-0.8-0.4c-0.3-0.4-0.1-1,0.3-1.2c0.4-0.2,0.7-0.5,0.9-0.9
					c0.2-0.4,0.8-0.6,1.2-0.3c0.4,0.2,0.6,0.8,0.3,1.2c-0.4,0.6-0.9,1.2-1.5,1.6C51.9,47.1,51.7,47.1,51.5,47.1z"/>
			</g>
			<g id="Path_190">
				<path class="st1" d="M49.2,45c-0.2,0-0.3-0.1-0.4-0.2c-0.1-0.2-0.1-0.5,0.2-0.7c0.4-0.3,0.8-0.6,1-1.1c0.1-0.2,0.4-0.3,0.7-0.2
					c0.2,0.1,0.3,0.4,0.2,0.7c-0.3,0.6-0.8,1.1-1.4,1.4C49.4,45,49.3,45,49.2,45z"/>
			</g>
			<g id="Path_191">
				<path class="st1" d="M49.5,45c-0.2,0-0.3-0.1-0.4-0.2c-0.1-0.2-0.1-0.5,0.2-0.7c0.4-0.3,0.8-0.6,1-1.1c0.1-0.2,0.4-0.3,0.7-0.2
					c0.2,0.1,0.3,0.4,0.2,0.7c-0.3,0.6-0.8,1.1-1.4,1.4C49.7,45,49.6,45,49.5,45z"/>
			</g>
			<g id="Path_192">
				<path class="st1" d="M49.7,45.2c-0.2,0-0.3-0.1-0.4-0.2c-0.1-0.2-0.1-0.5,0.2-0.7c0.4-0.3,0.8-0.6,1-1.1
					c0.1-0.2,0.4-0.3,0.7-0.2c0.2,0.1,0.3,0.4,0.2,0.7c-0.3,0.6-0.8,1.1-1.4,1.4C49.9,45.2,49.8,45.2,49.7,45.2z"/>
			</g>
			<g id="Path_193">
				<path class="st1" d="M46.9,53.6c-0.4,0-0.7-0.2-0.8-0.6c-0.2-0.5,0.1-1,0.5-1.1c0.7-0.2,1.3-0.6,1.9-1c0.4-0.3,1-0.2,1.2,0.3
					s0.2,1-0.3,1.2c-0.7,0.5-1.5,0.9-2.3,1.1C47.1,53.6,47,53.6,46.9,53.6z"/>
			</g>
		</g>
	</g>
</g>
</svg>
